<svg width="87" height="87" viewBox="0 0 87 87" fill="none" xmlns="http://www.w3.org/2000/svg">
<circle cx="43.5" cy="43.5" r="43.5" fill="#C6EDFF" fill-opacity="0.33"/>
<g clip-path="url(#clip0)">
<path d="M56.3882 46.911C56.3375 46.7676 56.2773 46.6279 56.2079 46.4928L56.2166 46.512C55.9635 45.9153 53.9285 41.9463 53.5888 41.4055L44.1404 22.999L34.4511 41.857C34.1217 42.3995 32.3156 45.917 32.066 46.512L31.9672 46.7325C31.3228 48.3182 30.9941 50.0165 31 51.7305C31 55.2495 32.3846 58.6244 34.8493 61.1127C37.3139 63.6011 40.6566 64.999 44.1421 64.999C47.6277 64.999 50.9704 63.6011 53.435 61.1127C55.8997 58.6244 57.2843 55.2495 57.2843 51.7305V51.72L57.286 51.5432C57.286 49.872 56.9567 48.2778 56.3587 46.8253L56.3882 46.9075V46.911ZM44.1473 61.5322C42.4662 61.5326 40.8138 61.0909 39.3531 60.2507C37.8923 59.4105 36.6735 58.2006 35.8166 56.7403C34.9596 55.28 34.4941 53.6195 34.466 51.9224C34.4378 50.2253 34.8478 48.55 35.6557 47.0615L35.6297 47.1123C35.5028 47.7937 35.439 48.4856 35.4391 49.179V49.1808C35.4409 52.288 36.6643 55.2674 38.8405 57.4646C41.0168 59.6617 43.9678 60.8969 47.0455 60.8988C47.2414 60.8988 47.4511 60.8988 47.6452 60.8882C46.5374 61.3181 45.3601 61.5364 44.1733 61.5322H44.1335H44.1352H44.1473Z" fill="#2F60C3"/>
</g>
<defs>
<clipPath id="clip0">
<rect width="26" height="42" fill="white" transform="translate(31 23)"/>
</clipPath>
</defs>
</svg>
