<svg width="87" height="87" viewBox="0 0 87 87" fill="none" xmlns="http://www.w3.org/2000/svg">
<circle cx="43.5" cy="43.5" r="43.5" fill="#C6EDFF" fill-opacity="0.33"/>
<path fill-rule="evenodd" clip-rule="evenodd" d="M39.3938 18.0947C38.5792 18.3592 37.9845 18.964 37.7384 19.7783C37.6675 20.0128 37.612 20.5595 37.612 21.0222V21.8476L36.9388 21.8219L36.2655 21.7962L36.1659 21.4914C36.1072 21.312 35.9428 21.1038 35.7661 20.9856C35.4829 20.7959 35.3817 20.7846 33.9687 20.7846C32.2704 20.7846 31.9813 20.8586 31.745 21.3545C31.6275 21.601 31.6059 22.0658 31.607 24.3167C31.6084 27.1877 31.618 27.2554 32.0759 27.594C32.3078 27.7654 32.4386 27.7783 33.9464 27.7783C35.4533 27.7783 35.585 27.7654 35.8169 27.5941C35.9541 27.4929 36.1111 27.2751 36.1659 27.1103L36.2655 26.8107L36.9388 26.785L37.612 26.7593V27.9411V29.1228L37.3691 29.1825C36.9528 29.2846 35.5403 29.9826 34.9724 30.3667C32.8843 31.7789 31.4018 34.1627 31.0762 36.6314C31.0096 37.137 30.9877 40.19 31.0064 46.3845L31.0334 55.4016L31.2674 56.2478C32.1662 59.4989 34.5443 61.8663 37.8551 62.8057C38.2063 62.9053 38.8392 62.9609 39.9085 62.986C41.336 63.0194 41.5198 63.0055 42.3116 62.8029C46.0528 61.8454 48.7411 58.7608 49.1838 54.9177C49.3047 53.8673 49.2987 38.0006 49.1769 36.9128C48.7886 33.4445 46.4578 30.4693 43.2432 29.3386L42.5588 29.0979L42.5586 27.9323L42.5584 26.7667L43.3754 26.7694C44.1196 26.7719 44.2651 26.8022 45.0077 27.1102C46.4728 27.7178 47.5341 28.4273 48.706 29.5828C50.3735 31.2268 51.4677 33.3255 51.8668 35.6453C51.9873 36.3456 52.0095 37.293 52.0095 41.7337V46.9928L51.6964 47.2384C51.5243 47.3735 51.2497 47.6833 51.0862 47.9268C49.9709 49.588 50.5551 51.7724 52.3501 52.6525C52.8842 52.9144 53.0039 52.9384 53.7742 52.9384C54.5002 52.9384 54.6836 52.9064 55.1164 52.7044C55.8182 52.3767 56.3726 51.8361 56.7129 51.1476C56.9725 50.6225 57 50.4909 57 49.7732C57 49.0685 56.9694 48.9153 56.7266 48.4051C56.5593 48.0535 56.2769 47.661 55.9984 47.3934L55.5436 46.9563L55.5415 41.9419C55.5391 35.8325 55.4721 35.0383 54.7815 32.9335C53.5996 29.3313 50.8942 26.1688 47.5323 24.4595C46.4658 23.9173 46.4443 23.9005 46.3103 23.5021C46.1378 22.9893 45.6655 22.4364 45.1345 22.1255C44.7571 21.9045 44.6313 21.8816 43.6404 21.8532L42.5584 21.8221L42.5564 20.8415C42.5542 19.7373 42.4187 19.302 41.9129 18.7754C41.2925 18.1292 40.1984 17.8335 39.3938 18.0947Z" fill="url(#paint0_linear)"/>
<path fill-rule="evenodd" clip-rule="evenodd" d="M37.7384 19.7783C37.9844 18.964 38.5792 18.3592 39.3938 18.0947C40.1984 17.8335 41.2925 18.1292 41.9129 18.7754C42.4187 19.302 42.5542 19.7373 42.5564 20.8415L42.5583 21.8221L43.6403 21.8532C44.6313 21.8816 44.7571 21.9045 45.1345 22.1255C45.6654 22.4364 46.1377 22.9893 46.3102 23.5021C46.4442 23.9005 46.4658 23.9173 47.5323 24.4595C50.8942 26.1688 53.5996 29.3313 54.7814 32.9335C55.4721 35.0383 55.539 35.8325 55.5415 41.9419L55.5435 46.9563L55.9984 47.3934C56.2768 47.661 56.5593 48.0535 56.7266 48.4051C56.9694 48.9153 57 49.0685 57 49.7732C57 50.4909 56.9725 50.6225 56.7129 51.1476C56.3726 51.8361 55.8181 52.3767 55.1164 52.7044C54.6836 52.9064 54.5002 52.9384 53.7741 52.9384C53.0038 52.9384 52.8841 52.9144 52.35 52.6525C50.5551 51.7724 49.9709 49.588 51.0861 47.9268C51.2496 47.6833 51.5242 47.3735 51.6964 47.2384L52.0094 46.9928V41.7337C52.0094 37.293 51.9873 36.3456 51.8668 35.6453C51.4676 33.3255 50.3734 31.2268 48.706 29.5828C47.534 28.4273 46.4728 27.7178 45.0077 27.1102C44.2651 26.8022 44.1195 26.7719 43.3754 26.7694L42.5583 26.7667L42.5586 27.9323L42.5588 29H37.612V27.9411V26.7593L36.9387 26.785L36.2655 26.8107L36.1659 27.1103C36.1111 27.2751 35.954 27.4929 35.8169 27.5941C35.585 27.7654 35.4533 27.7783 33.9463 27.7783C32.4386 27.7783 32.3078 27.7654 32.0758 27.594C31.618 27.2554 31.6084 27.1877 31.607 24.3167C31.6058 22.0658 31.6275 21.601 31.7449 21.3545C31.9812 20.8586 32.2703 20.7846 33.9687 20.7846C35.3817 20.7846 35.4829 20.7959 35.7661 20.9856C35.9427 21.1038 36.1072 21.312 36.1659 21.4914L36.2655 21.7962L36.9387 21.8219L37.612 21.8476V21.0222C37.612 20.5595 37.6675 20.0128 37.7384 19.7783Z" fill="#FDCC27"/>
<defs>
<linearGradient id="paint0_linear" x1="25" y1="25" x2="80.5" y2="113" gradientUnits="userSpaceOnUse">
<stop stop-color="#164DBC"/>
<stop offset="1" stop-color="white"/>
</linearGradient>
</defs>
</svg>
