<svg width="87" height="87" viewBox="0 0 87 87" fill="none" xmlns="http://www.w3.org/2000/svg">
<circle cx="43.5" cy="43.5" r="43.5" fill="#C6EDFF" fill-opacity="0.33"/>
<path fill-rule="evenodd" clip-rule="evenodd" d="M42.9473 24.3659C42.2881 24.8284 42.2651 25.2389 42.8678 25.7856C43.4824 26.343 43.6333 27.2667 43.3382 28.6635C43.0824 29.8754 42.636 30.2997 41.6178 30.2997C40.7433 30.2997 40.2835 29.2359 40.5158 27.7507C40.6117 27.139 39.8181 26.98 39.1417 27.4754C38.6698 27.8214 38.6706 27.8311 39.2113 28.2736C39.5199 28.5264 39.8215 29.1146 39.9024 29.6217C40.0381 30.4699 39.9959 30.5456 39.1723 30.9394C38.0899 31.4565 37.4111 31.17 36.4593 29.7936C35.9443 29.0488 35.8401 28.6557 35.907 27.7063C35.9879 26.5549 35.9775 26.5357 35.2357 26.4634C34.6991 26.4109 34.2594 26.5775 33.7088 27.0419C32.7093 27.8847 32.7887 28.5664 33.93 28.9342C34.5707 29.1405 34.9111 29.4719 35.3229 30.2905C35.6226 30.8862 35.868 31.6592 35.868 32.0083C35.868 32.7664 34.8423 33.8346 34.3718 33.5663C33.6441 33.1512 32.961 32.3719 32.961 31.9568C32.961 31.3773 32.42 31.3909 31.8847 31.9838C31.4023 32.5178 31.561 32.9701 32.2308 32.9701C32.6964 32.9701 33.694 34.0375 33.6797 34.5201C33.6751 34.6689 33.467 35.0367 33.2168 35.337C32.271 36.4734 29.912 35.7182 29.2197 34.0577C28.8999 33.2905 28.7991 33.2192 28.3655 33.4517C27.6642 33.8278 27.0963 34.7896 27.1889 35.4443C27.2579 35.933 27.3858 35.9954 28.1891 35.9318C29.9966 35.789 31.7008 37.4435 31.1773 38.8328C30.9416 39.4584 30.8076 39.5246 29.7761 39.5246C28.8333 39.5246 28.5489 39.4139 28.1349 38.8869C27.7201 38.3582 27.5719 38.3009 27.2695 38.5524C26.9486 38.8194 26.7286 40.4957 27.0145 40.4957C27.0748 40.4957 27.388 40.3753 27.7104 40.2279C28.1831 40.0124 28.52 40.0592 29.4462 40.4697C30.4345 40.9079 30.5751 41.0557 30.4491 41.5265C30.3687 41.8275 30.3013 42.197 30.2996 42.3477C30.2957 42.6672 29.3313 43.0826 28.0947 43.2972C27.246 43.4445 26.1724 43.1127 25.1341 42.3819C24.7644 42.1217 24.6416 42.1472 24.3468 42.5448C23.8332 43.2382 23.9023 44.7035 24.473 45.2213C24.9311 45.6367 24.9759 45.6291 25.7029 45.0162C26.5464 44.3049 27.8522 44.1893 29.3134 44.6969C29.9559 44.9203 30.195 45.1727 30.3551 45.7966C30.6068 46.7764 30.3471 47.1583 29.1644 47.5496C28.5418 47.7555 28.2417 47.7589 28.0452 47.562C27.4302 46.9456 27.006 47.6885 27.4345 48.6311C27.7434 49.3104 28.0651 49.4077 28.2662 48.8826C28.4396 48.4294 29.9064 47.9417 30.5145 48.1349C30.7718 48.217 31.0906 48.5947 31.2228 48.9746C31.7253 50.4188 29.779 52.1036 27.9953 51.7681C27.1802 51.6149 27.147 51.6367 27.147 52.3313C27.147 53.1921 27.9718 54.3331 28.5944 54.3331C28.8684 54.3331 29.1337 54.0571 29.2892 53.6099C29.8313 52.0514 32.4186 51.3408 33.272 52.516C33.6674 53.0605 33.6727 53.1724 33.334 53.8289C32.9084 54.6533 32.0792 55.3041 31.4535 55.3041C30.8471 55.3041 30.9188 55.8496 31.6107 56.5009C32.28 57.1311 32.7187 56.9967 32.7187 56.1611C32.7187 55.5178 33.9624 54.3331 34.6378 54.3331C34.8733 54.3331 35.2679 54.5564 35.5143 54.8295C35.9172 55.2755 35.9319 55.4418 35.6594 56.4682C35.2488 58.0131 34.7749 58.678 33.79 59.0905C32.7449 59.5282 32.6676 60.3783 33.6058 61.118C35.1819 62.3605 36.0984 61.9912 35.9251 60.1836C35.8256 59.1456 35.9082 58.8531 36.5766 57.8796C37.4688 56.5801 38.252 56.2778 39.1679 56.8792C39.7147 57.2382 39.7806 57.4132 39.658 58.1804C39.5802 58.6681 39.2823 59.2587 38.9962 59.4932C38.57 59.8421 38.5301 59.9851 38.7762 60.2822C39.057 60.6213 40.4707 60.8095 40.4707 60.5075C40.4707 60.432 40.3605 60.164 40.2261 59.912C40.049 59.5806 40.0899 59.1813 40.3733 58.4712C40.7345 57.5667 40.8377 57.489 41.6786 57.489C42.8644 57.489 43.205 57.9323 43.3281 59.6343C43.4121 60.7995 43.3494 61.0809 42.9179 61.472C42.6379 61.7261 42.4087 62.0832 42.4087 62.2655C42.4087 63.1434 45.0907 63.282 45.4204 62.4212C45.5107 62.185 45.3618 61.8019 45.0493 61.4688C44.6585 61.052 44.5328 60.6262 44.5497 59.7772C44.5807 58.2343 45.0992 57.489 46.1416 57.489C46.83 57.489 47.0168 57.6169 47.3472 58.3146C47.8078 59.2869 47.8509 60.1921 47.4555 60.5883C47.073 60.9716 47.7637 61.2377 48.597 61.028C49.4427 60.8153 49.597 60.2482 48.9517 59.7243C48.5927 59.4333 48.3761 58.9278 48.293 58.1876C48.1743 57.1329 48.2024 57.0709 48.9347 56.7668C49.9534 56.3441 50.7186 56.7498 51.5348 58.1454C52.021 58.9764 52.1104 59.3716 51.9834 60.1246C51.8487 60.924 51.895 61.0838 52.2908 61.1877C52.9672 61.3649 54.1777 60.7828 54.6569 60.0499C55.1281 59.3291 55.0464 59.1839 53.9711 58.8327C53.0653 58.5365 52.1087 57.0292 52.1026 55.888C52.0985 55.0786 52.7206 54.3331 53.4006 54.3331C53.9745 54.3331 55.0057 55.4177 55.0057 56.0215C55.0057 56.6687 55.2826 56.6493 55.9326 55.9562C56.5884 55.2565 56.5951 55.0614 55.9638 55.0614C55.3483 55.0614 54.2761 54.0207 54.287 53.4337C54.3018 52.6374 55.1404 51.9055 56.0382 51.9055C57.0787 51.9055 58.451 52.8037 58.6393 53.6075C58.9627 54.9905 60.9416 53.8735 60.7708 52.4043C60.7057 51.8455 60.6075 51.7914 59.7776 51.8569C58.7553 51.9375 57.4028 51.249 56.8134 50.3474C56.5297 49.9136 56.5196 49.6726 56.7577 49.0397C56.9185 48.6131 57.2168 48.2475 57.4207 48.2274C58.5118 48.1196 59.2941 48.343 59.7982 48.9062C60.2483 49.4087 60.4179 49.4686 60.7066 49.2283C61.0387 48.9523 61.2258 47.293 60.9249 47.293C60.8495 47.293 60.5717 47.409 60.3074 47.5506C59.9648 47.7344 59.5865 47.7288 58.9888 47.5312C57.8083 47.1408 57.4864 46.7412 57.6194 45.8326C57.7073 45.2325 57.9157 44.9807 58.5419 44.7185C59.6715 44.2456 60.6485 44.2964 61.3704 44.8654C62.4629 45.7267 63 45.4065 63 43.8944C63 42.3822 62.4629 42.062 61.3704 42.9233C60.6424 43.4972 59.6703 43.5426 58.5106 43.0571C57.9551 42.8245 57.6705 42.5434 57.6705 42.2273C57.6705 41.9644 57.6041 41.5755 57.5227 41.3633C57.294 40.7661 59.4624 39.8655 60.2563 40.2279C60.5787 40.3753 60.8919 40.4957 60.9523 40.4957C61.2381 40.4957 61.0182 38.8194 60.6972 38.5524C60.3948 38.3009 60.2466 38.3582 59.8319 38.8869C59.4142 39.4188 59.1361 39.5246 58.1567 39.5246C57.0387 39.5246 56.9743 39.4882 56.8163 38.7672C56.5983 37.7734 57.2163 36.9133 58.6758 36.1787C59.5535 35.7371 59.906 35.6735 60.4113 35.866C60.8992 36.0519 61.1313 36.0218 61.4171 35.7354C61.8687 35.2829 61.8677 35.329 61.4457 34.3164C60.9961 33.2381 59.9932 32.5496 59.4862 32.9711C59.287 33.1369 59.124 33.4678 59.124 33.7066C59.124 34.2948 57.8575 35.3229 56.7545 35.6298C55.4999 35.9789 55.4059 35.9616 54.7511 35.2632C54.209 34.6847 54.1942 34.5993 54.53 33.9887C54.7279 33.6287 55.2405 33.1704 55.6693 32.9701C56.5617 32.5533 56.6448 32.2425 56.0162 31.6725C55.3897 31.1042 55.0057 31.1741 55.0057 31.8561C55.0057 32.3785 53.8182 33.7006 53.3519 33.6972C53.2623 33.6967 52.8417 33.3702 52.4178 32.9718C51.7213 32.3178 51.6683 32.1704 51.872 31.4555C52.1816 30.3692 52.8788 29.4879 53.5561 29.3277C54.3614 29.1374 54.4086 28.7082 53.7022 28.0003C53.3078 27.6051 52.8197 27.3866 52.3308 27.3866C51.5866 27.3866 51.5748 27.4048 51.7264 28.3042C51.8572 29.0806 51.7669 29.3797 51.1404 30.2463C50.3587 31.3278 49.8984 31.4725 48.8141 30.9773C48.2249 30.7083 48.1816 30.5923 48.294 29.5909C48.3763 28.8604 48.5941 28.3545 48.9517 28.0644C49.597 27.5405 49.4427 26.9734 48.597 26.7607C47.7637 26.551 47.073 26.8171 47.4555 27.2004C47.8509 27.5966 47.8078 28.5018 47.3472 29.4741C47.0473 30.1075 46.8075 30.2988 46.3177 30.2961C45.4742 30.291 45.1566 30.0647 44.8465 29.2474C44.4252 28.1374 44.5316 26.5542 45.0735 25.8637C45.684 25.0862 45.689 24.5608 45.0895 24.2392C44.4177 23.8789 43.5694 23.9292 42.9473 24.3659ZM44.6902 24.378C44.901 24.4591 45.0735 24.6776 45.0735 24.8636C45.0735 25.2789 43.2489 25.3391 42.9976 24.9318C42.6805 24.4179 43.8223 24.0443 44.6902 24.378ZM35.3835 27.0086C35.3835 27.4737 34.4438 28.1149 33.7626 28.1149C33.0523 28.1149 33.2648 27.5017 34.1405 27.0249C34.9644 26.5763 35.3835 26.5707 35.3835 27.0086ZM53.3706 27.9673C53.8657 28.3438 53.9309 28.8432 53.4851 28.8432C53.0757 28.8432 52.0987 28.1491 52.0987 27.8583C52.0987 27.5254 52.8773 27.5922 53.3706 27.9673ZM39.8392 32.3831C40.0703 32.9866 40.0262 33.1279 39.359 33.9224C38.5562 34.8787 37.3215 34.9911 37.3215 34.1079C37.3215 33.3692 38.6359 32.1289 39.5364 32.0182C39.6221 32.0078 39.7583 32.1719 39.8392 32.3831ZM44.9633 32.595C45.6568 33.2898 45.7113 33.7528 45.1646 34.3009C44.6718 34.7944 43.1609 34.7041 42.8215 34.1608C42.4674 33.5937 42.8249 32.497 43.4456 32.2467C44.2382 31.9269 44.3143 31.9444 44.9633 32.595ZM50.1729 33.1425C50.9863 34.0708 50.9987 34.508 50.2148 34.624C49.4497 34.7372 48.7085 34.2422 48.3448 33.3757C47.699 31.8369 48.8952 31.6842 50.1729 33.1425ZM60.7437 33.7406C61.2926 34.2575 61.5237 35.3977 61.0797 35.3977C60.725 35.3977 59.8507 34.1655 59.8507 33.6656C59.8507 33.0769 60.0569 33.0944 60.7437 33.7406ZM28.6005 34.1298C28.6005 34.6367 27.9474 35.6405 27.6177 35.6405C27.263 35.6405 27.3483 34.8362 27.7664 34.238C28.2204 33.5882 28.6005 33.5391 28.6005 34.1298ZM35.3387 37.5282C35.4222 38.3968 34.6732 39.8587 34.0155 40.1116C33.0484 40.4836 32.6226 38.9425 33.3193 37.5925C33.7146 36.8261 34.0504 36.6178 34.7779 36.6868C35.1361 36.721 35.2822 36.94 35.3387 37.5282ZM41.4865 37.0363C42.4051 38.1081 42.0536 39.4538 40.7089 40.0119C40.042 40.2886 39.8806 40.269 39.3045 39.84C38.8893 39.5307 38.6265 39.0799 38.5783 38.5944C38.4286 37.0883 40.5548 35.9493 41.4865 37.0363ZM49.0491 37.3585C49.394 37.7692 49.6762 38.3203 49.6762 38.5832C49.6762 39.0923 48.6651 40.2529 48.2218 40.2529C47.5958 40.2529 46.5614 39.4873 46.3443 38.8631C45.6694 36.923 47.7237 35.7801 49.0491 37.3585ZM54.1203 36.9181C54.629 37.2908 55.2276 38.943 55.0714 39.5421C54.7829 40.6474 53.3163 39.9225 52.8255 38.4322C52.3345 36.9414 53.0348 36.1228 54.1203 36.9181ZM31.9682 43.2022C32.3287 44.2386 32.303 45.4065 31.9077 45.9486C31.4413 46.5875 31.1005 46.2542 30.8042 44.869C30.3728 42.8539 31.357 41.4451 31.9682 43.2022ZM37.546 43.0775C37.8222 43.4292 38.0482 44.0152 38.0482 44.3799C38.0482 45.264 37.1907 46.322 36.4736 46.322C35.725 46.322 34.899 45.2507 34.899 44.2799C34.899 42.5295 36.5334 41.7872 37.546 43.0775ZM45.4819 42.9655C46.2954 43.7315 46.2569 45.1468 45.4042 45.8187C44.0618 46.8769 42.1665 46.0149 42.1665 44.3459C42.1665 42.6475 44.2309 41.7879 45.4819 42.9655ZM52.6712 42.8034C53.8163 43.9509 53.0333 46.322 51.5091 46.322C50.3439 46.322 49.7458 44.2689 50.552 43.0362C51.0038 42.345 52.0944 42.2251 52.6712 42.8034ZM57.1402 43.7499C57.2146 44.9239 56.8333 46.322 56.4384 46.322C56.326 46.322 56.1213 46.1108 55.9832 45.8525C55.4546 44.8627 55.9566 42.3528 56.6564 42.4859C56.96 42.5436 57.0843 42.868 57.1402 43.7499ZM25.0878 43.7931C25.0878 44.4765 24.9856 44.744 24.7245 44.744C24.3388 44.744 24.0978 43.6446 24.3432 43.0039C24.6055 42.3191 25.0878 42.8303 25.0878 43.7931ZM62.7578 43.8944C62.7578 44.5957 62.6567 44.8654 62.3944 44.8654C62.132 44.8654 62.031 44.5957 62.031 43.8944C62.031 43.193 62.132 42.9233 62.3944 42.9233C62.6567 42.9233 62.7578 43.193 62.7578 43.8944ZM35.5683 49.4696C36.6919 51.1454 35.758 52.3757 34.4375 50.9592C33.303 49.7422 33.2665 48.424 34.3709 48.5537C34.7747 48.6012 35.2088 48.9331 35.5683 49.4696ZM41.6059 49.0346C42.2629 49.6534 42.3317 50.5919 41.7656 51.2187C40.5265 52.5908 38.0778 50.2979 39.2588 48.8717C39.7038 48.3347 40.9545 48.4214 41.6059 49.0346ZM48.901 48.7981C49.7097 49.6085 48.636 51.6627 47.4037 51.6627C46.0917 51.6627 45.5924 50.1107 46.5691 49.0686C47.1467 48.4529 48.4102 48.3063 48.901 48.7981ZM54.4246 48.8474C54.6063 49.3218 53.6564 51.1044 53.0481 51.4306C52.4384 51.7574 51.8565 51.5734 51.8565 51.0539C51.8565 50.5096 52.7545 48.8178 53.1218 48.6697C53.7158 48.4303 54.2952 48.5095 54.4246 48.8474ZM28.2233 52.6879C28.6414 53.2861 28.7267 54.0903 28.372 54.0903C28.0423 54.0903 27.3892 53.0865 27.3892 52.5796C27.3892 51.989 27.7693 52.038 28.2233 52.6879ZM60.5775 52.5796C60.5775 53.0865 59.9244 54.0903 59.5947 54.0903C59.24 54.0903 59.3253 53.2861 59.7434 52.6879C60.1974 52.038 60.5775 51.989 60.5775 52.5796ZM40.0744 54.002C41.0141 54.9439 40.8918 55.7027 39.8651 55.2998C39.1798 55.0308 38.2905 54.1367 38.2905 53.7167C38.2905 53.1331 39.3813 53.3074 40.0744 54.002ZM45.0444 53.7932C45.3218 54.3125 45.0216 54.9422 44.3162 55.3204C43.9262 55.5297 43.7239 55.4966 43.3576 55.1645C42.9027 54.7518 42.735 53.8442 43.0548 53.524C43.4037 53.1744 44.816 53.3654 45.0444 53.7932ZM49.6762 53.6839C49.6762 54.0534 48.8412 54.8689 48.0374 55.2842C47.1491 55.7433 47.0408 54.9465 47.8732 54.0758C48.5711 53.3458 49.6762 53.1054 49.6762 53.6839ZM54.4243 59.7132C54.6584 60.0926 53.645 60.8876 52.9275 60.8876C52.1913 60.8876 52.3858 60.2834 53.2783 59.7976C54.0665 59.3682 54.2054 59.358 54.4243 59.7132ZM34.8532 60.4116C35.5274 61.0408 35.5276 61.3732 34.8539 61.3732C34.3348 61.3732 33.2032 60.5121 33.2032 60.1171C33.2032 59.7238 34.3324 59.9253 34.8532 60.4116ZM44.8312 62.1051C45.1542 62.3177 45.1542 62.3707 44.8312 62.5833C44.6314 62.7147 44.2498 62.8222 43.9834 62.8222C43.7169 62.8222 43.3353 62.7147 43.1355 62.5833C42.8126 62.3707 42.8126 62.3177 43.1355 62.1051C43.3353 61.9738 43.7169 61.8662 43.9834 61.8662C44.2498 61.8662 44.6314 61.9738 44.8312 62.1051Z" fill="#D2D2D2" fill-opacity="0.58"/>
<path d="M49.7103 30.068L46.5039 30.1223L46.4418 26.3972L49.5391 26.3447L49.5015 24.0612L37.17 24.2703L37.2086 26.5526L40.306 26.5001L40.3691 30.2263L37.1627 30.2807L37.6326 58.0025L43.3744 63.8138L43.4574 68.7101L44.7236 69.6942L44.6236 63.7948L50.1652 57.7922L49.7103 30.068ZM47.9145 31.9257L48.1532 46.0091L39.2805 46.1594L39.2176 42.5766L43.6668 42.5012L43.6349 40.6188L39.1857 40.6943L39.1295 37.3788L43.5787 37.3033L43.5468 35.421L39.0976 35.4964L39.0398 32.0868L47.9145 31.9257Z" fill="#3B6AC7"/>
</svg>
